<svg width="1024" height="803" fill="none" xmlns="http://www.w3.org/2000/svg"><g clip-path="url(#a)" fill="#243444"><path d="M0 0h1024v803H0V0Zm453.49 109.5c-1.29 1.27-3.45 2.28-3.28 4.39-.12 23.46.09 46.92-.16 70.39-19 12.28-37.8 24.85-56.78 37.15-.17 22.44-.1 44.88.05 67.32 2.54 1.533 5.097 3.05 7.67 4.55.22-22.45.14-44.9.07-67.35 16.213-10.707 32.43-21.4 48.65-32.08.7 62.37.14 124.74.41 187.11V536.7l7.51.23c.51-58.66.13-117.32.21-176 0-57.35.16-114.69-.14-172 6-3.91 12.23-7.46 18.26-11.32.23 99.81.06 199.62.05 299.42h7.7c-.05-104.27.16-208.54 0-312.81-8.8 5.08-17.61 10.13-26.14 15.66.74-21.22-.05-42.45.39-63.67 22.5-18.19 44.67-36.78 67.34-54.77-.1 162.973-.1 325.943 0 488.91-38.1-.05-76.19.13-114.28.22-21.66.23-43.31-.43-65-.17-29 .07-58 .44-87 0-13.31.46-26.64-.2-40 .54.06 2.42.117 4.847.17 7.28h313.63c.12-164.887.18-329.793.18-494.72 14.42 16.42 28.55 33.1 43.09 49.41 2 2.33 4.38 4.79 4.24 8.07.49 46.37-.68 92.75.15 139.12 3.11-2.37 8.07-4.37 7.67-9.07.08-45.29-.13-90.59.21-135.88-11.68-13.78-23.85-27.15-35.5-40.95-7.78-8.8-15.86-17.33-23.26-26.5-25.74 20.14-50.72 41.25-76.11 61.8Zm97.69 189.79c-.39 33.89 0 67.79-.18 101.69.15 30-.44 60.09-.31 90.14 2.667.08 5.317.173 7.95.28.12-62.57 0-125.13.1-187.7 14.27-10.05 28.71-19.86 42.85-30.09a40.058 40.058 0 0 1 4.93-2.81c.38 95.83 0 191.65.17 287.48 66.187.04 132.377.017 198.57-.07 0-2.67-.07-5.34-.09-8-19.58.22-39.16 0-58.74.15-.29-44.13 0-88.28-.18-132.42-17.82-13.7-35.6-27.45-53.34-41.25-19.34 15.41-39 30.48-57.84 46.45-.94 7.55-.06 15.25-.31 22.86.19 30.23-.1 60.46.14 90.69 2.5 0 5 .06 7.5.11.64-8.93.21-17.88.41-26.82 0-27.02.033-54.04.1-81.06-.33-2 1.57-3.11 2.86-4.26 14.46-11.44 28.67-23.19 43-34.8-.19 49-.14 98-.13 146.94l7.55.2c-.11-49.1.47-98.21-.13-147.32 10.67 7.26 20.48 15.67 30.74 23.48 3.88 3.14 8.16 5.88 11.43 9.71.16 42.6.14 85.2-.06 127.8-41.22-.173-82.433-.323-123.64-.45.04-93.247.02-186.497-.06-279.75 16.18 11.03 32.53 21.88 48.81 32.84.42 26.17-.25 52.34.21 78.51 3.11-2.34 7.86-4.28 7.93-8.81 0-24.66.23-49.33-.17-74-19.41-13-38.88-25.89-58.06-39.22-1.18-.63-2.71-2.2-4-.91-19.55 13.17-38.68 26.96-58.01 40.44v-.03Zm-224-22.53c.05 36.17.18 72.33.05 108.49-15.39 10-30.91 19.7-46.26 29.72-1.39.9-2.93 2.13-2.66 4-.1 39.26-.147 78.523-.14 117.79l7.82.14c0-37.65.18-75.3.18-112.95-.48-2.56 1.92-3.89 3.66-5.14 12.27-8.3 24.87-16.1 37.54-23.77-.38 47.29-.16 94.57-.14 141.86 2.59 0 5.17 0 7.76.08.23-49.19.06-98.38.12-147.57 5.43-2.95 10.56-6.4 15.8-9.67.19 25.46 0 50.93.06 76.39 2.51 1.19 5.26.67 7.91.31-.25-30.11.05-60.22-.4-90.33-8.15 4.23-15.45 9.86-23.42 14.41-.047-30.567.02-61.13.2-91.69 19.12 9 38.22 18.12 57.64 26.52 1 15.53.16 31.12.39 46.67-.05 35-.11 70 0 104.94.14 23.3-.36 46.61.35 69.9h7.41c.08-72.467.143-144.94.19-217.42 6.14 3.18 12.46 6 18.76 8.87.17 42.87-.25 85.75 0 128.62h7.93c.067-44.6.087-89.203.06-133.81-22.12-10.22-44.09-20.78-66.35-30.73-11.5-5.15-22.78-10.81-34.45-15.6l-.01-.03Zm253.66 29.18c-.51 21-.05 42-.17 63 0 55.647-.037 111.313-.11 167H589c-.39-79 0-158-.14-237-2.71 2.34-5.38 4.67-8.01 7.03l-.01-.03Zm81.43 127.21c-.19 21.26-.06 42.51 0 63.77l7.94-.13c.1-23.65.3-47.3-.14-70.95-2.65 2.38-5.29 4.8-7.79 7.34l-.01-.03ZM394.12 578.69c.08 19.58.05 39.16.06 58.74h6.43c.07-7.22 0-14.44-.05-21.65 2.74.39 5.55 1.19 8.34.59a11.756 11.756 0 0 0 9.34-11.39c0-5.68.07-11.37-.11-17-.05-5-4.35-9.08-8.95-10.41-5-1.35-10.18-.07-15.06 1.12Zm74 0c-.05 19.57 0 39.14.06 58.72h6.38v-21.63c3.33.54 6.91 1.41 10.17 0a11.667 11.667 0 0 0 7.49-10.76c.06-5.69 0-11.39-.1-17.07-.07-5-4.33-9.13-9-10.45-4.95-1.27-10.12 0-15 1.21v-.02Zm87-.37c.04 1.44.07 2.89.09 4.35 4.38 0 9.57-1.16 13.24 1.92 2.19 4.49 1.3 9.8.75 14.59-.83 3.88-5.42 4.14-8.62 4.46 0 1.61.06 3.23.1 4.86 2.57.15 5.4-.28 7.73 1.09 2 1.36 2 4.12 2.17 6.32 0 4 .16 8-.1 11.93a4.396 4.396 0 0 1-3.23 4.25c-4 1-8.11.49-12.15.56v4.17c6.07 1.77 13.72 2.84 18.65-2.08 5.23-5.18 3.4-13.19 3.41-19.77.18-4.76-4-8.13-8.08-9.54 3.28-1.69 6.79-4.33 6.94-8.36.28-5.8 1.3-13.12-3.94-17.15-4.75-4.08-11.48-3.11-17-1.58l.04-.02Zm42.24.23v58.15c7.24 1.72 16.17 3.42 22.25-2.09 5.45-5.07 3.07-13.15 3.48-19.69.42-4.64-3.65-7.82-7.39-9.6a19.468 19.468 0 0 0 4.69-4c2.24-2.92 1.86-6.83 2-10.28.08-4.27-1-9.09-4.84-11.53-6.01-4.2-13.7-2.36-20.23-.94l.04-.02ZM781.78 588c-.1 5.33-.17 10.69.1 16 0 3.6 2.89 6.14 5.46 8.23-1.95 8.45-4.46 16.76-6.6 25.17h6.6c2.25-7.89 4-15.92 6.27-23.81 1.9-.233 3.81-.453 5.73-.66.06 8.18-.11 16.36.09 24.54 2.12 0 4.24-.07 6.37-.1 0-19.44.07-38.87-.09-58.3-4.74-1.16-9.67-2.86-14.58-1.7s-9.41 5.4-9.39 10.65l.04-.02ZM218 577.87v59.57h21.61v10.54h6.21V631.9c-1.57 0-3.13-.08-4.7-.1.13-18 0-36 .07-54-2.14 0-4.27.06-6.39.18-.35 17.94 0 35.89-.12 53.83-3.41 0-6.82 0-10.24.06v-54H218Zm46.94 0c0 19.85.09 39.7.06 59.55h20.21c0-1.86-.03-3.71-.09-5.55h-13.68v-23.3h12v-5.51h-12v-19.54h13.76c0-1.86-.06-3.71-.1-5.56-6.733-.073-13.453-.1-20.16-.08v-.01Zm41.12 0c-.06 19.87.11 39.73 0 59.59h6.39c0-9.62.11-19.24.09-28.87 3.673.067 7.34.067 11 0 .14 9.61.06 19.23.14 28.85h6.37v-59.61l-6.51.06c.13 8.38.06 16.76.07 25.15H312.5c0-8.37-.16-16.73 0-25.08-2.133-.053-4.28-.093-6.44-.12v.03Zm43.11 0v5.56c3.25 0 6.5 0 9.75.08v53.91h6.66c.05-18 0-36 0-54h10l-.09-5.56c-8.76-.007-17.533 0-26.32.02v-.01Zm170.1 0c-3.02 19.867-6.053 39.737-9.1 59.61 2 0 3.93 0 5.9.07 1-5.76 1.77-11.57 2.59-17.36h10.77c.89 5.75 1.71 11.52 2.5 17.29h6.37a94204.96 94204.96 0 0 0-9.16-59.56c-3.29-.04-6.58-.05-9.87-.09v.04Zm125 0c.13 19.85 0 39.7.06 59.55h5.5c4.48-13.36 8.5-26.88 13.2-40.16.13 13.38.13 26.77.12 40.15h6.44c0-19.88-.037-39.763-.11-59.65-1.87 0-3.73.06-5.58.1-4.57 13.47-8.47 27.16-13.35 40.53-.23-13.52-.09-27-.13-40.56-2.1.03-4.14.04-6.19.05l.04-.01Zm44.4 0v5.55h9.74v54h6.66v-54H715v-5.57c-8.79.03-17.58.01-26.37.03l.04-.01Zm46 0c.08 19.86.06 39.71.08 59.57h5.44c4.41-13.36 8.64-26.78 13.13-40.12.43 13.37.13 26.75.23 40.13h6.39v-59.58h-5.7c-4.44 13.4-8.37 27-13.22 40.22-.34-13.41-.13-26.83-.2-40.25-2.06.03-4.1.02-6.14.03h-.01Zm40.71 69.32c1.11 3 2.2 6.54 5.34 8a18.516 18.516 0 0 0 16.21-.31c2.83-1.56 3.63-5 4.71-7.73-2.79-.06-5.58-.1-8.36-.1-.68 1.31-.6 3.44-2.41 3.75-3.14 1.38-6.42-.63-7.44-3.68-2.68-.027-5.36-.003-8.04.07h-.01ZM346.07 660.3c-.26 26.47 0 53-.05 79.43 7.74 2.26 16.14 3.68 24 1.33 6.48-1.94 11.95-8.1 11.78-15.06-.08-6 .27-12-.26-18-.49-5.46-5.36-8.9-9.9-11.06 2.55-1.76 5.37-3.45 6.85-6.29 2.84-5.07 2.17-11.1 2-16.66 0-7.27-5.62-13.91-12.66-15.41-7.23-1.38-14.71-.3-21.76 1.72Zm125.93-.34c-5.59 2.62-8.13 9.13-8 15 .09 17 0 34 .05 51.08 0 5.83 3 12.15 8.63 14.43 6.82 2.77 14.53 1.85 21.33-.54v-5.72c-5.44-.07-11 .57-16.33-.7-3.15-.95-4.34-4.51-4.16-7.49v-52.08c-.19-3.09 1.33-6.72 4.6-7.46 5.25-1 10.64-.49 15.95-.59-.093-2-.18-3.983-.26-5.95-7.09-2-14.96-3.16-21.81.02Zm-254-.86v81.68c2.76 0 5.527-.063 8.3-.19 5.587-18 11.393-35.953 17.42-53.86.18 18 0 36 .09 54h9.06v-81.56a345.53 345.53 0 0 0-7.89-.09c-6 18.3-11.83 36.65-17.8 55-.29-18.28-.06-36.58-.13-54.86-3.05-.06-6.05-.1-9.05-.12Zm64.56 0v81.66h9.37c.05-13-.08-26 .08-39.06h14.85v39.06h9.17v-81.61h-9.18v34.57H292v-34.56l-9.44-.06Zm126.79 0v81.62h28.17c0-2.59 0-5.17.09-7.74-6.26-.33-12.53-.12-18.79-.18-.11-10.38-.18-20.77.06-31.15 5.43.06 10.86 0 16.28 0v-8c-5.5 0-11 .13-16.5-.2.13-8.7.07-17.4 0-26.09 6.28-.127 12.557-.173 18.83-.14v-8.13c-9.32.12-18.73-.03-28.13.04l-.01-.03Zm106.88 0v8.18h13.44c0 24.48.09 49 .08 73.44h9.11v-73.38c4.57 0 9.15 0 13.73-.07v-8.18c-12.107 0-24.223.013-36.35.04l-.01-.03Zm62.27 0c0 27.24-.08 54.48 0 81.71 2.733-.067 5.463-.12 8.19-.16 5.8-17.94 11.38-35.95 17.52-53.78.08 17.96.117 35.92.11 53.88 3 0 6.07 0 9.12-.08-.12-27.16 0-54.32-.06-81.48-2.58.15-5.54-.63-7.89.27-6.25 18.09-11.77 36.44-17.83 54.6-.25-18.29-.08-36.59-.15-54.88-2.97-.01-5.99-.06-9-.08h-.01Zm63.43 0v81.64h29.87v14.28h8.82c0-7.38-.06-14.75.06-22.12-2.16-.07-4.3-.11-6.44-.14v-73.58c-3-.07-6.09-.09-9.13-.08 0 24.57-.1 49.14-.07 73.7h-13.66c-.22-24.54-.13-49.08-.09-73.62-3.12-.01-6.24-.06-9.35-.07l-.01-.01Zm65.75 0v81.67l8.2-.08c5.79-18.06 11.54-36.13 17.57-54.11 0 18.06.08 36.12.1 54.19h9.06v-81.59a159.23 159.23 0 0 0-8 0c-5.92 18.22-11.56 36.53-17.8 54.64-.12-18.22 0-36.43-.06-54.64-3.02-.02-6.04-.06-9.06-.08h-.01Zm63.43 0v81.66l8.24-.1c5.68-18 11.57-36 17.42-54 .34 18 .08 36.07.16 54.1h9v-81.6c-2.62-.04-5.237-.04-7.85 0-6 18.3-11.83 36.65-17.86 54.94-.1-18.29-.09-36.57-.09-54.86-2.98-.08-6-.12-9.01-.13l-.01-.01Z"/><path d="M400.64 582.5c3.64.14 8.71-.38 10.58 3.59 1.17 4.53.32 9.31.6 14-.16 3.29.71 7.33-2 9.85-2.55 2.12-6.14 1.29-9.18 1.48-.02-9.687-.02-19.327 0-28.92Zm74-.06c3.65.15 8.75-.36 10.59 3.64 1 3.55.43 7.31.54 11-.24 3.85.83 8.08-1 11.66-2.15 3.42-6.73 2.45-10.13 2.57-.01-9.65-.03-19.26 0-28.87Zm129.19.06c3.77.24 9.29-.75 11.19 3.5a27.74 27.74 0 0 1 0 14c-1.94 4.25-7.5 3.16-11.28 3.38 0-6.96.12-13.88.09-20.88Zm184.53 4.57c.91-5.05 7.06-4.51 10.94-4.6v26.3c-3.74 0-9.56.55-10.78-4.11a100.33 100.33 0 0 1-.16-17.59Zm-268.84 27.56c1.56-10.35 2.63-20.78 4.69-31 1.44 10.32 2.999 20.63 4.399 31-3.03-.13-6.069-.05-9.089 0Zm84.41-6.13c3.59.21 7.83-.82 10.86 1.65 2.8 2.86 1.59 7.22 1.85 10.81-.26 3.3.78 7.29-1.67 10-3.14 2.5-7.44 1.49-11.12 1.71-.16-8.033-.133-16.09.08-24.17Zm-248.61 57.39c4.49.15 9.77-.86 13.45 2.38 3.34 3 2.2 7.84 2.43 11.78-.21 3.92.85 8.78-2.48 11.71-3.71 3.11-8.92 2.21-13.38 2.21.1-9.36-.1-18.72-.02-28.08Zm.07 35.61c4.72 0 10.09-1.1 14.22 1.85 2.5 1.66 3.12 4.82 3.07 7.63 0 5 .1 10-.08 15.06a7.895 7.895 0 0 1-5.68 7.68c-3.75.85-7.62.54-11.43.64-.25-10.97-.04-21.93-.1-32.86Z"/></g><defs><clipPath id="a"><path fill="#fff" d="M0 0h1024v803H0z"/></clipPath></defs></svg>