<svg width="1024" height="803" viewBox="0 0 1024 803" fill="none" xmlns="http://www.w3.org/2000/svg">
<g clip-path="url(#clip0_4073_4960)">
<path d="M0 0H1024V803H0V0ZM453.49 109.5C452.2 110.77 450.04 111.78 450.21 113.89C450.09 137.35 450.3 160.81 450.05 184.28C431.05 196.56 412.25 209.13 393.27 221.43C393.1 243.87 393.17 266.31 393.32 288.75C395.86 290.283 398.417 291.8 400.99 293.3C401.21 270.85 401.13 248.4 401.06 225.95C417.273 215.243 433.49 204.55 449.71 193.87C450.41 256.24 449.85 318.61 450.12 380.98C450.12 432.88 450.12 484.787 450.12 536.7L457.63 536.93C458.14 478.27 457.76 419.61 457.84 360.93C457.84 303.58 458 246.24 457.7 188.93C463.7 185.02 469.93 181.47 475.96 177.61C476.19 277.42 476.02 377.23 476.01 477.03C478.57 477.03 481.14 477.03 483.71 477.03C483.66 372.76 483.87 268.49 483.71 164.22C474.91 169.3 466.1 174.35 457.57 179.88C458.31 158.66 457.52 137.43 457.96 116.21C480.46 98.02 502.63 79.43 525.3 61.44C525.2 224.413 525.2 387.383 525.3 550.35C487.2 550.3 449.11 550.48 411.02 550.57C389.36 550.8 367.71 550.14 346.02 550.4C317.02 550.47 288.02 550.84 259.02 550.4C245.71 550.86 232.38 550.2 219.02 550.94C219.08 553.36 219.137 555.787 219.19 558.22C323.743 558.22 428.287 558.22 532.82 558.22C532.94 393.333 533 228.427 533 63.5C547.42 79.92 561.55 96.6 576.09 112.91C578.09 115.24 580.47 117.7 580.33 120.98C580.82 167.35 579.65 213.73 580.48 260.1C583.59 257.73 588.55 255.73 588.15 251.03C588.23 205.74 588.02 160.44 588.36 115.15C576.68 101.37 564.51 88 552.86 74.2C545.08 65.4 537 56.87 529.6 47.7C503.86 67.84 478.88 88.95 453.49 109.5ZM551.18 299.29C550.79 333.18 551.18 367.08 551 400.98C551.15 430.98 550.56 461.07 550.69 491.12C553.357 491.2 556.007 491.293 558.64 491.4C558.76 428.83 558.64 366.27 558.74 303.7C573.01 293.65 587.45 283.84 601.59 273.61C603.165 272.558 604.812 271.619 606.52 270.8C606.9 366.63 606.52 462.45 606.69 558.28C672.877 558.32 739.067 558.297 805.26 558.21C805.26 555.54 805.19 552.87 805.17 550.21C785.59 550.43 766.01 550.21 746.43 550.36C746.14 506.23 746.43 462.08 746.25 417.94C728.43 404.24 710.65 390.49 692.91 376.69C673.57 392.1 653.91 407.17 635.07 423.14C634.13 430.69 635.01 438.39 634.76 446C634.95 476.23 634.66 506.46 634.9 536.69C637.4 536.69 639.9 536.75 642.4 536.8C643.04 527.87 642.61 518.92 642.81 509.98C642.81 482.96 642.843 455.94 642.91 428.92C642.58 426.92 644.48 425.81 645.77 424.66C660.23 413.22 674.44 401.47 688.77 389.86C688.58 438.86 688.63 487.86 688.64 536.8L696.19 537C696.08 487.9 696.66 438.79 696.06 389.68C706.73 396.94 716.54 405.35 726.8 413.16C730.68 416.3 734.96 419.04 738.23 422.87C738.39 465.47 738.37 508.07 738.17 550.67C696.95 550.497 655.737 550.347 614.53 550.22C614.57 456.973 614.55 363.723 614.47 270.47C630.65 281.5 647 292.35 663.28 303.31C663.7 329.48 663.03 355.65 663.49 381.82C666.6 379.48 671.35 377.54 671.42 373.01C671.42 348.35 671.65 323.68 671.25 299.01C651.84 286.01 632.37 273.12 613.19 259.79C612.01 259.16 610.48 257.59 609.19 258.88C589.64 272.05 570.51 285.84 551.18 299.32V299.29ZM327.18 276.76C327.23 312.93 327.36 349.09 327.23 385.25C311.84 395.25 296.32 404.95 280.97 414.97C279.58 415.87 278.04 417.1 278.31 418.97C278.21 458.23 278.163 497.493 278.17 536.76L285.99 536.9C285.99 499.25 286.17 461.6 286.17 423.95C285.69 421.39 288.09 420.06 289.83 418.81C302.1 410.51 314.7 402.71 327.37 395.04C326.99 442.33 327.21 489.61 327.23 536.9C329.82 536.9 332.4 536.9 334.99 536.98C335.22 487.79 335.05 438.6 335.11 389.41C340.54 386.46 345.67 383.01 350.91 379.74C351.1 405.2 350.91 430.67 350.97 456.13C353.48 457.32 356.23 456.8 358.88 456.44C358.63 426.33 358.93 396.22 358.48 366.11C350.33 370.34 343.03 375.97 335.06 380.52C335.013 349.953 335.08 319.39 335.26 288.83C354.38 297.83 373.48 306.95 392.9 315.35C393.9 330.88 393.06 346.47 393.29 362.02C393.24 397.02 393.18 432.02 393.29 466.96C393.43 490.26 392.93 513.57 393.64 536.86H401.05C401.13 464.393 401.193 391.92 401.24 319.44C407.38 322.62 413.7 325.44 420 328.31C420.17 371.18 419.75 414.06 420 456.93H427.93C427.997 412.33 428.017 367.727 427.99 323.12C405.87 312.9 383.9 302.34 361.64 292.39C350.14 287.24 338.86 281.58 327.19 276.79L327.18 276.76ZM580.84 305.94C580.33 326.94 580.79 347.94 580.67 368.94C580.67 424.587 580.633 480.253 580.56 535.94C583.37 535.94 586.18 535.94 589 535.94C588.61 456.94 589 377.94 588.86 298.94C586.15 301.28 583.48 303.61 580.85 305.97L580.84 305.94ZM662.27 433.15C662.08 454.41 662.21 475.66 662.27 496.92L670.21 496.79C670.31 473.14 670.51 449.49 670.07 425.84C667.42 428.22 664.78 430.64 662.28 433.18L662.27 433.15ZM394.12 578.69C394.2 598.27 394.17 617.85 394.18 637.43H400.61C400.68 630.21 400.61 622.99 400.56 615.78C403.3 616.17 406.11 616.97 408.9 616.37C411.521 615.819 413.876 614.39 415.574 612.318C417.273 610.247 418.213 607.658 418.24 604.98C418.24 599.3 418.31 593.61 418.13 587.98C418.08 582.98 413.78 578.9 409.18 577.57C404.18 576.22 399 577.5 394.12 578.69ZM468.12 578.69C468.07 598.26 468.12 617.83 468.18 637.41H474.56C474.56 630.2 474.56 622.99 474.56 615.78C477.89 616.32 481.47 617.19 484.73 615.78C486.913 614.943 488.793 613.47 490.129 611.551C491.464 609.633 492.193 607.357 492.22 605.02C492.28 599.33 492.22 593.63 492.12 587.95C492.05 582.95 487.79 578.82 483.12 577.5C478.17 576.23 473 577.5 468.12 578.71V578.69ZM555.12 578.32C555.16 579.76 555.19 581.21 555.21 582.67C559.59 582.67 564.78 581.51 568.45 584.59C570.64 589.08 569.75 594.39 569.2 599.18C568.37 603.06 563.78 603.32 560.58 603.64C560.58 605.25 560.64 606.87 560.68 608.5C563.25 608.65 566.08 608.22 568.41 609.59C570.41 610.95 570.41 613.71 570.58 615.91C570.58 619.91 570.74 623.91 570.48 627.84C570.482 628.805 570.167 629.743 569.583 630.511C569 631.279 568.18 631.834 567.25 632.09C563.25 633.09 559.14 632.58 555.1 632.65C555.1 634.03 555.1 635.42 555.1 636.82C561.17 638.59 568.82 639.66 573.75 634.74C578.98 629.56 577.15 621.55 577.16 614.97C577.34 610.21 573.16 606.84 569.08 605.43C572.36 603.74 575.87 601.1 576.02 597.07C576.3 591.27 577.32 583.95 572.08 579.92C567.33 575.84 560.6 576.81 555.08 578.34L555.12 578.32ZM597.36 578.55C597.36 597.93 597.36 617.31 597.36 636.7C604.6 638.42 613.53 640.12 619.61 634.61C625.06 629.54 622.68 621.46 623.09 614.92C623.51 610.28 619.44 607.1 615.7 605.32C617.466 604.244 619.049 602.894 620.39 601.32C622.63 598.4 622.25 594.49 622.39 591.04C622.47 586.77 621.39 581.95 617.55 579.51C611.54 575.31 603.85 577.15 597.32 578.57L597.36 578.55ZM781.78 588C781.68 593.33 781.61 598.69 781.88 604C781.88 607.6 784.77 610.14 787.34 612.23C785.39 620.68 782.88 628.99 780.74 637.4H787.34C789.59 629.51 791.34 621.48 793.61 613.59C795.51 613.357 797.42 613.137 799.34 612.93C799.4 621.11 799.23 629.29 799.43 637.47C801.55 637.47 803.67 637.4 805.8 637.37C805.8 617.93 805.87 598.5 805.71 579.07C800.97 577.91 796.04 576.21 791.13 577.37C786.22 578.53 781.72 582.77 781.74 588.02L781.78 588ZM218 577.87V637.44C225.2 637.44 232.41 637.44 239.61 637.44C239.61 640.95 239.61 644.44 239.61 647.98H245.82C245.82 642.62 245.82 637.26 245.82 631.9C244.25 631.9 242.69 631.82 241.12 631.8C241.25 613.8 241.12 595.8 241.19 577.8C239.05 577.8 236.92 577.86 234.8 577.98C234.45 595.92 234.8 613.87 234.68 631.81C231.27 631.81 227.86 631.81 224.44 631.87C224.44 613.87 224.44 595.87 224.44 577.87H218ZM264.94 577.87C264.94 597.72 265.03 617.57 265 637.42C271.733 637.42 278.47 637.42 285.21 637.42C285.21 635.56 285.18 633.71 285.12 631.87C280.56 631.87 276 631.87 271.44 631.87C271.44 624.1 271.44 616.34 271.44 608.57C275.44 608.57 279.44 608.57 283.44 608.57C283.44 606.73 283.44 604.9 283.44 603.06C279.44 603.06 275.44 603.06 271.44 603.06C271.44 596.55 271.44 590.06 271.44 583.52C276.03 583.52 280.61 583.52 285.2 583.52C285.2 581.66 285.14 579.81 285.1 577.96C278.367 577.887 271.647 577.86 264.94 577.88V577.87ZM306.06 577.87C306 597.74 306.17 617.6 306.06 637.46H312.45C312.45 627.84 312.56 618.22 312.54 608.59C316.213 608.657 319.88 608.657 323.54 608.59C323.68 618.2 323.6 627.82 323.68 637.44C325.8 637.44 327.923 637.44 330.05 637.44C330.05 617.567 330.05 597.697 330.05 577.83L323.54 577.89C323.67 586.27 323.6 594.65 323.61 603.04C319.91 603.04 316.2 603.04 312.5 603.04C312.5 594.67 312.34 586.31 312.5 577.96C310.367 577.907 308.22 577.867 306.06 577.84V577.87ZM349.17 577.87C349.17 579.72 349.17 581.57 349.17 583.43C352.42 583.43 355.67 583.43 358.92 583.51C358.92 601.51 358.92 619.48 358.92 637.42H365.58C365.63 619.42 365.58 601.42 365.58 583.42C368.92 583.42 372.25 583.42 375.58 583.42L375.49 577.86C366.73 577.853 357.957 577.86 349.17 577.88V577.87ZM519.27 577.87C516.25 597.737 513.217 617.607 510.17 637.48C512.17 637.48 514.1 637.48 516.07 637.55C517.07 631.79 517.84 625.98 518.66 620.19C522.24 620.19 525.84 620.19 529.43 620.19C530.32 625.94 531.14 631.71 531.93 637.48C534.05 637.48 536.17 637.48 538.3 637.48C535.253 617.627 532.2 597.773 529.14 577.92C525.85 577.88 522.56 577.87 519.27 577.83V577.87ZM644.27 577.87C644.4 597.72 644.27 617.57 644.33 637.42H649.83C654.31 624.06 658.33 610.54 663.03 597.26C663.16 610.64 663.16 624.03 663.15 637.41H669.59C669.59 617.53 669.553 597.647 669.48 577.76C667.61 577.76 665.75 577.82 663.9 577.86C659.33 591.33 655.43 605.02 650.55 618.39C650.32 604.87 650.46 591.39 650.42 577.83C648.32 577.86 646.28 577.87 644.23 577.88L644.27 577.87ZM688.67 577.87C688.67 579.72 688.67 581.56 688.67 583.42H698.41C698.41 601.42 698.41 619.42 698.41 637.42H705.07C705.07 619.42 705.07 601.42 705.07 583.42H715C715 581.55 715 579.7 715 577.85C706.21 577.88 697.42 577.86 688.63 577.88L688.67 577.87ZM734.67 577.87C734.75 597.73 734.73 617.58 734.75 637.44C736.55 637.44 738.37 637.44 740.19 637.44C744.6 624.08 748.83 610.66 753.32 597.32C753.75 610.69 753.45 624.07 753.55 637.45C755.67 637.45 757.8 637.45 759.94 637.45C759.94 617.59 759.94 597.73 759.94 577.87H754.24C749.8 591.27 745.87 604.87 741.02 618.09C740.68 604.68 740.89 591.26 740.82 577.84C738.76 577.87 736.72 577.86 734.68 577.87H734.67ZM775.38 647.19C776.49 650.19 777.58 653.73 780.72 655.19C783.269 656.371 786.052 656.957 788.861 656.903C791.669 656.849 794.428 656.158 796.93 654.88C799.76 653.32 800.56 649.88 801.64 647.15C798.85 647.09 796.06 647.05 793.28 647.05C792.6 648.36 792.68 650.49 790.87 650.8C787.73 652.18 784.45 650.17 783.43 647.12C780.75 647.093 778.07 647.117 775.39 647.19H775.38ZM346.07 660.3C345.81 686.77 346.07 713.3 346.02 739.73C353.76 741.99 362.16 743.41 370.02 741.06C376.5 739.12 381.97 732.96 381.8 726C381.72 720 382.07 714 381.54 708C381.05 702.54 376.18 699.1 371.64 696.94C374.19 695.18 377.01 693.49 378.49 690.65C381.33 685.58 380.66 679.55 380.49 673.99C380.49 666.72 374.87 660.08 367.83 658.58C360.6 657.2 353.12 658.28 346.07 660.3ZM472 659.96C466.41 662.58 463.87 669.09 464 674.96C464.09 691.96 464 708.96 464.05 726.04C464.05 731.87 467.05 738.19 472.68 740.47C479.5 743.24 487.21 742.32 494.01 739.93C494.01 738.02 494.01 736.11 494.01 734.21C488.57 734.14 483.01 734.78 477.68 733.51C474.53 732.56 473.34 729 473.52 726.02V673.94C473.33 670.85 474.85 667.22 478.12 666.48C483.37 665.48 488.76 665.99 494.07 665.89C493.977 663.89 493.89 661.907 493.81 659.94C486.72 657.94 478.85 656.78 472 659.96ZM218 659.1C218 686.333 218 713.56 218 740.78C220.76 740.78 223.527 740.717 226.3 740.59C231.887 722.59 237.693 704.637 243.72 686.73C243.9 704.73 243.72 722.73 243.81 740.73H252.87C252.87 713.55 252.87 686.363 252.87 659.17C250.243 659.11 247.613 659.08 244.98 659.08C238.98 677.38 233.15 695.73 227.18 714.08C226.89 695.8 227.12 677.5 227.05 659.22C224 659.16 221 659.12 218 659.1ZM282.56 659.1C282.56 686.32 282.56 713.54 282.56 740.76H291.93C291.98 727.76 291.85 714.76 292.01 701.7H306.86C306.86 714.72 306.86 727.74 306.86 740.76H316.03C316.03 713.56 316.03 686.357 316.03 659.15C312.97 659.15 309.91 659.15 306.85 659.15C306.85 670.67 306.85 682.15 306.85 693.72H292C292 682.2 292 670.72 292 659.16L282.56 659.1ZM409.35 659.1C409.35 686.3 409.35 713.507 409.35 740.72C418.74 740.72 428.13 740.72 437.52 740.72C437.52 738.13 437.52 735.55 437.61 732.98C431.35 732.65 425.08 732.86 418.82 732.8C418.71 722.42 418.64 712.03 418.88 701.65C424.31 701.71 429.74 701.65 435.16 701.65C435.16 698.983 435.16 696.317 435.16 693.65C429.66 693.65 424.16 693.78 418.66 693.45C418.79 684.75 418.73 676.05 418.66 667.36C424.94 667.233 431.217 667.187 437.49 667.22C437.49 664.5 437.49 661.79 437.49 659.09C428.17 659.21 418.76 659.06 409.36 659.13L409.35 659.1ZM516.23 659.1C516.23 661.82 516.23 664.55 516.23 667.28H529.67C529.67 691.76 529.76 716.28 529.75 740.72H538.86C538.86 716.26 538.86 691.8 538.86 667.34C543.43 667.34 548.01 667.34 552.59 667.27C552.59 664.54 552.59 661.81 552.59 659.09C540.483 659.09 528.367 659.103 516.24 659.13L516.23 659.1ZM578.5 659.1C578.5 686.34 578.42 713.58 578.5 740.81C581.233 740.743 583.963 740.69 586.69 740.65C592.49 722.71 598.07 704.7 604.21 686.87C604.29 704.83 604.327 722.79 604.32 740.75C607.32 740.75 610.39 740.75 613.44 740.67C613.32 713.51 613.44 686.35 613.38 659.19C610.8 659.34 607.84 658.56 605.49 659.46C599.24 677.55 593.72 695.9 587.66 714.06C587.41 695.77 587.58 677.47 587.51 659.18C584.54 659.17 581.52 659.12 578.51 659.1H578.5ZM641.93 659.1C641.93 686.313 641.93 713.527 641.93 740.74C651.93 740.74 661.84 740.74 671.8 740.74C671.8 745.5 671.8 750.26 671.8 755.02C674.74 755.02 677.68 755.02 680.62 755.02C680.62 747.64 680.56 740.27 680.68 732.9C678.52 732.83 676.38 732.79 674.24 732.76C674.24 708.233 674.24 683.707 674.24 659.18C671.24 659.11 668.15 659.09 665.11 659.1C665.11 683.67 665.01 708.24 665.04 732.8C660.48 732.8 655.927 732.8 651.38 732.8C651.16 708.26 651.25 683.72 651.29 659.18C648.17 659.17 645.05 659.12 641.94 659.11L641.93 659.1ZM707.68 659.1C707.68 686.32 707.68 713.543 707.68 740.77L715.88 740.69C721.67 722.63 727.42 704.56 733.45 686.58C733.45 704.64 733.53 722.7 733.55 740.77C736.55 740.77 739.55 740.77 742.61 740.77C742.61 713.57 742.61 686.373 742.61 659.18C739.943 659.113 737.277 659.113 734.61 659.18C728.69 677.4 723.05 695.71 716.81 713.82C716.69 695.6 716.81 677.39 716.75 659.18C713.73 659.16 710.71 659.12 707.69 659.1H707.68ZM771.11 659.1C771.11 686.32 771.11 713.54 771.11 740.76L779.35 740.66C785.03 722.66 790.92 704.66 796.77 686.66C797.11 704.66 796.85 722.73 796.93 740.76H805.93C805.93 713.56 805.93 686.36 805.93 659.16C803.31 659.12 800.693 659.12 798.08 659.16C792.08 677.46 786.25 695.81 780.22 714.1C780.12 695.81 780.13 677.53 780.13 659.24C777.15 659.16 774.13 659.12 771.12 659.11L771.11 659.1Z" fill="#243444"/>
<path d="M400.64 582.5C404.28 582.64 409.35 582.12 411.22 586.09C412.39 590.62 411.54 595.4 411.82 600.09C411.66 603.38 412.53 607.42 409.82 609.94C407.27 612.06 403.68 611.23 400.64 611.42C400.62 601.733 400.62 592.093 400.64 582.5Z" fill="#243444"/>
<path d="M474.64 582.44C478.29 582.59 483.39 582.08 485.23 586.08C486.23 589.63 485.66 593.39 485.77 597.08C485.53 600.93 486.6 605.16 484.77 608.74C482.62 612.16 478.04 611.19 474.64 611.31C474.63 601.66 474.61 592.05 474.64 582.44Z" fill="#243444"/>
<path d="M603.83 582.5C607.6 582.74 613.12 581.75 615.02 586C616.217 590.59 616.217 595.41 615.02 600C613.08 604.25 607.52 603.16 603.74 603.38C603.74 596.42 603.86 589.5 603.83 582.5Z" fill="#243444"/>
<path d="M788.36 587.07C789.27 582.02 795.42 582.56 799.3 582.47C799.3 591.24 799.3 600 799.3 608.77C795.56 608.77 789.74 609.32 788.52 604.66C787.952 598.812 787.898 592.926 788.36 587.07Z" fill="#243444"/>
<path d="M519.52 614.63C521.08 604.28 522.15 593.85 524.21 583.63C525.65 593.95 527.209 604.26 528.609 614.63C525.579 614.5 522.54 614.58 519.52 614.63Z" fill="#243444"/>
<path d="M603.93 608.5C607.52 608.71 611.76 607.68 614.79 610.15C617.59 613.01 616.38 617.37 616.64 620.96C616.38 624.26 617.42 628.25 614.97 630.96C611.83 633.46 607.53 632.45 603.85 632.67C603.69 624.637 603.717 616.58 603.93 608.5Z" fill="#243444"/>
<path d="M355.32 665.89C359.81 666.04 365.09 665.03 368.77 668.27C372.11 671.27 370.97 676.11 371.2 680.05C370.99 683.97 372.05 688.83 368.72 691.76C365.01 694.87 359.8 693.97 355.34 693.97C355.44 684.61 355.24 675.25 355.32 665.89Z" fill="#243444"/>
<path d="M355.39 701.5C360.11 701.5 365.48 700.4 369.61 703.35C372.11 705.01 372.73 708.17 372.68 710.98C372.68 715.98 372.78 720.98 372.6 726.04C372.622 727.765 372.078 729.449 371.052 730.836C370.027 732.222 368.576 733.235 366.92 733.72C363.17 734.57 359.3 734.26 355.49 734.36C355.24 723.39 355.45 712.43 355.39 701.5Z" fill="#243444"/>
</g>
<defs>
<clipPath id="clip0_4073_4960">
<rect width="1024" height="803" fill="#ffffff"/>
</clipPath>
</defs>
</svg>
